<?xml version="1.0" encoding="UTF-8" standalone="no"?>
<!-- Created with Inkscape (http://www.inkscape.org/) -->

<svg
   width="1280"
   height="720"
   viewBox="0 0 338.66666 190.5"
   version="1.1"
   id="svg5"
   xml:space="preserve"
   inkscape:version="1.2.2 (b0a8486541, 2022-12-01)"
   sodipodi:docname="logo.svg"
   xmlns:inkscape="http://www.inkscape.org/namespaces/inkscape"
   xmlns:sodipodi="http://sodipodi.sourceforge.net/DTD/sodipodi-0.dtd"
   xmlns="http://www.w3.org/2000/svg"
   xmlns:svg="http://www.w3.org/2000/svg"><sodipodi:namedview
     id="namedview7"
     pagecolor="#505050"
     bordercolor="#eeeeee"
     borderopacity="1"
     inkscape:showpageshadow="0"
     inkscape:pageopacity="0"
     inkscape:pagecheckerboard="0"
     inkscape:deskcolor="#505050"
     inkscape:document-units="px"
     showgrid="false"
     inkscape:zoom="0.35355339"
     inkscape:cx="828.72914"
     inkscape:cy="404.46508"
     inkscape:current-layer="layer1"
     showguides="true" /><defs
     id="defs2"><rect
       x="374.74998"
       y="59.8559"
       width="1608.302"
       height="608.96872"
       id="rect1187" /></defs><g
     inkscape:label="Layer 1"
     inkscape:groupmode="layer"
     id="layer1"><g
       id="g1244"
       transform="translate(0.11720959,15.604644)"><g
         aria-label="Lubby"
         transform="matrix(0.26458333,0,0,0.26458333,-137.58336,-21.166667)"
         id="text1185"
         style="font-size:466.667px;font-family:Andy;-inkscape-font-specification:Andy;white-space:pre;fill:#3daee9;fill-opacity:1;stroke-width:0;stroke-linecap:square;stroke-linejoin:round;paint-order:stroke fill markers"><path
           d="m 785.15109,497.35577 c -19.44446,0 -38.88891,0 -58.33337,0 0.48656,-12.00032 4.34057,-36.93609 -15.7634,-29.16668 -33.63445,0 -67.2689,0 -100.90335,0 0,-19.44446 0,-38.88892 0,-58.33338 12.00033,0.48656 36.9361,4.34058 29.16669,-15.7634 0,-14.18999 0,-28.37998 0,-42.56997 12.00032,0.48656 36.93609,4.34057 29.16668,-15.7634 0,-23.91222 0,-47.82444 0,-71.73666 -13.14382,1.641 -38.64146,2.78135 -28.19625,-17.85315 4.56291,-22.63963 -31.66091,-1.22251 -29.87848,-18.14738 -0.97751,-17.15465 0.2337,-34.33552 -0.25864,-51.49953 29.16669,0 58.33337,0 87.50006,0 -1.641,13.14382 -2.78135,38.64146 17.85315,28.19625 18.11715,-2.13513 9.67983,21.78701 11.31354,32.49723 0,38.10221 0,76.20443 0,114.30664 -12.00033,-0.48656 -36.9361,-4.34058 -29.16669,15.7634 0,14.18999 0,28.37998 0,42.56997 13.14382,-1.641 38.64147,-2.78136 28.19626,17.85315 -0.82219,20.38718 27.26697,8.07197 39.61879,11.16476 11.22844,4.12482 26.49456,-1.69967 18.7105,-15.34612 -3.76865,-19.92739 22.60802,-13.4253 34.22667,-13.10145 11.68711,-3.0046 30.13243,-3.17993 25.08122,13.64736 0,14.70523 0,29.41045 0,44.11568 -13.14382,-1.641 -38.64147,-2.78136 -28.19626,17.85315 3.21705,17.93763 -20.48746,9.65805 -30.13712,11.31353 z"
           style="-inkscape-font-specification:KiwiSoda;fill:#3daee9;fill-opacity:1"
           id="path1203" /><path
           d="m 989.3179,468.18909 c -29.16669,0 -58.33337,0 -87.50006,0 -1.36262,-9.25771 2.9921,-19.41405 -1.79141,-28.00527 -7.80714,-7.72126 -23.70546,8.23575 -27.28652,-6.57333 -1.11772,-9.75375 0.41611,-19.60147 -0.0888,-29.41059 0,-37.00365 0,-74.00729 0,-111.01094 19.44446,0 38.88892,0 58.33338,0 0,38.88892 0,77.77783 0,116.66675 9.25771,1.36262 19.41405,-2.9921 28.00526,1.79141 7.72126,7.80715 -8.23575,23.70546 6.57333,27.28652 7.13644,0.2699 18.61663,1.69145 23.0224,-1.6605 1.77952,-38.28469 0.1892,-76.61395 0.73238,-114.91749 -9.25771,-1.36262 -19.41405,2.9921 -28.00527,-1.79141 -5.1606,-5.15803 -0.0228,-12.09913 -1.16142,-18.31761 0,-12.74145 0,-25.4829 0,-38.22435 19.44446,0 38.88893,0 58.33343,0 1.3626,9.25771 -2.9921,19.41404 1.7914,28.00526 7.8071,7.72125 23.7054,-8.23575 27.2865,6.57333 1.1178,9.75375 -0.4161,19.60147 0.089,29.41059 0,37.00365 0,74.00729 0,111.01094 -9.2577,1.36262 -19.4141,-2.9921 -28.0053,1.79141 -7.7212,7.80715 8.2358,23.70546 -6.5733,27.28652 -7.8608,1.37436 -15.84452,-0.54199 -23.75484,0.0888 z"
           style="-inkscape-font-specification:KiwiSoda;fill:#3daee9;fill-opacity:1"
           id="path1205" /><path
           d="m 1222.6514,468.18909 c -48.6111,0 -97.2223,0 -145.8334,0 0,-19.44446 0,-38.88892 0,-58.33338 10.3478,-1.04523 34.1756,5.86042 29.7178,-12.26838 -1.251,-11.44175 -0.2096,-23.20836 -0.5512,-34.77898 0,-42.65092 0,-85.30184 0,-127.95276 -10.3478,-1.04523 -34.1756,5.86042 -29.7178,-12.26838 1.251,-11.44175 0.2096,-23.20836 0.5512,-34.77898 1.0581,-3.4185 -2.3419,-11.2952 2.1439,-11.28601 18.7298,0 37.4596,0 56.1894,0 1.0453,10.34778 -5.8605,34.17566 12.2683,29.71784 17.7564,-9.07503 19.3483,13.05229 16.7888,25.19747 0.2534,30.30147 0.038,60.61281 0.1096,90.91812 29.1667,0 58.3334,0 87.5001,0 1.0453,10.34778 -5.8605,34.17567 12.2683,29.71785 17.7564,-9.07503 19.3483,13.05229 16.7888,25.19747 0.2511,20.57929 0.04,41.16832 0.1096,61.75143 -10.3478,1.04526 -34.1757,-5.86047 -29.7179,12.26837 9.0751,17.75635 -13.0523,19.34822 -25.1975,16.78876 -1.1375,0.1222 -2.2779,0.1092 -3.418,0.10956 z M 1164.318,439.0224 c 10.3478,-1.04526 34.1757,5.86047 29.7179,-12.26837 -9.0751,-17.75635 13.0523,-19.34822 25.1975,-16.78876 6.705,-5.94814 2.1466,-22.41285 3.4707,-32.51117 -2.5608,-7.48935 4.5399,-24.3887 -3.6259,-25.93176 -18.2534,0 -36.5068,0 -54.7602,0 -1.0453,10.34778 5.8605,34.17567 -12.2683,29.71785 -17.7564,-9.07503 -19.3483,13.05229 -16.7888,25.19747 2.985,10.25873 -8.2985,34.98782 9.9353,33.04523 6.2335,-1.00885 12.785,-0.20115 19.1218,-0.46049 z"
           style="-inkscape-font-specification:KiwiSoda;fill:#3daee9;fill-opacity:1"
           id="path1207" /><path
           d="m 1455.9849,468.18909 c -48.6111,0 -97.2223,0 -145.8334,0 0,-19.44446 0,-38.88892 0,-58.33338 10.3478,-1.04523 34.1756,5.86042 29.7178,-12.26838 -1.251,-11.44175 -0.2096,-23.20836 -0.5512,-34.77898 0,-42.65092 0,-85.30184 0,-127.95276 -10.3478,-1.04523 -34.1756,5.86042 -29.7178,-12.26838 1.251,-11.44175 0.2096,-23.20836 0.5512,-34.77898 1.0581,-3.4185 -2.3419,-11.2952 2.1439,-11.28601 18.7298,0 37.4596,0 56.1894,0 1.0453,10.34778 -5.8605,34.17566 12.2683,29.71784 17.7564,-9.07503 19.3483,13.05229 16.7888,25.19747 0.2534,30.30147 0.038,60.61281 0.1096,90.91812 29.1667,0 58.3334,0 87.5001,0 1.0453,10.34778 -5.8605,34.17567 12.2683,29.71785 17.7564,-9.07503 19.3483,13.05229 16.7888,25.19747 0.2511,20.57929 0.04,41.16832 0.1096,61.75143 -10.3478,1.04526 -34.1757,-5.86047 -29.7179,12.26837 9.0751,17.75635 -13.0523,19.34822 -25.1975,16.78876 -1.1375,0.1222 -2.2779,0.1092 -3.418,0.10956 z m -58.3334,-29.16669 c 10.3478,-1.04526 34.1757,5.86047 29.7179,-12.26837 -9.0751,-17.75635 13.0523,-19.34822 25.1975,-16.78876 6.705,-5.94814 2.1466,-22.41285 3.4707,-32.51117 -2.5608,-7.48935 4.5399,-24.3887 -3.6259,-25.93176 -18.2534,0 -36.5068,0 -54.7602,0 -1.0453,10.34778 5.8605,34.17567 -12.2683,29.71785 -17.7564,-9.07503 -19.3483,13.05229 -16.7888,25.19747 2.985,10.25873 -8.2985,34.98782 9.9353,33.04523 6.2335,-1.00885 12.785,-0.20115 19.1218,-0.46049 z"
           style="-inkscape-font-specification:KiwiSoda;fill:#3daee9;fill-opacity:1"
           id="path1209" /><path
           d="m 1572.6516,584.85583 c -9.8275,-1.95482 -29.7204,6.44178 -30.3237,-8.95361 2.2842,-10.85277 0.6787,-22.15393 1.1571,-33.2174 0,-5.38745 0,-10.77491 0,-16.16236 19.4444,0 38.8889,0 58.3333,0 1.9548,-9.82751 -6.4418,-29.72039 8.9536,-30.32383 10.6235,5.75466 24.5182,0.87625 20.5678,-13.29202 1.9337,-11.63967 -3.1043,-18.23436 -15.4191,-14.50823 -13.9197,4.48846 -17.9429,-8.53364 -12.6808,-18.85993 0.2402,-16.02493 -19.5445,-9.03001 -29.0985,-11.43689 -6.8118,-7.9492 6.8801,-29.27986 -9.1826,-28.69606 -12.0751,6.42496 -26.4878,-2.78888 -22.2187,-17.01048 1.5542,-16.31351 0.38,-32.79518 0.745,-49.18243 0,-16.67455 0,-33.34909 0,-50.02363 19.4444,0 38.8889,0 58.3333,0 0,38.88892 0,77.77783 0,116.66675 9.8275,1.95485 29.7204,-6.44181 30.3238,8.95361 -5.7546,10.62347 -0.8762,24.51824 13.2921,20.56783 6.7857,-1.05922 17.2785,2.53604 14.3439,-8.18939 1.1715,-26.54423 -0.1187,-53.11157 0.3736,-79.66542 -9.8275,-1.95485 -29.7204,6.44181 -30.3238,-8.95361 2.2842,-10.85277 0.6787,-22.15393 1.1571,-33.2174 0,-5.38746 0,-10.77491 0,-16.16237 19.4445,0 38.8889,0 58.3334,0 1.9548,9.82751 -6.4418,29.72039 8.9536,30.32383 10.6235,-5.75466 24.5182,-0.87625 20.5678,13.29202 -0.7679,32.37868 -0.1608,64.80677 -0.3547,97.20709 2.0131,10.42495 -13.4792,2.70932 -19.3996,4.57243 -13.5106,-1.62558 -10.3992,11.66785 -9.7671,20.07484 0,12.89887 0,25.79773 0,38.6966 -9.8275,1.95485 -29.7204,-6.44181 -30.3238,8.95361 5.7546,10.62347 0.8762,24.51824 -13.2921,20.56783 -11.6396,-3.46002 -18.2344,2.66927 -14.5082,14.70962 4.4885,13.91975 -8.5336,17.9429 -18.8599,12.68087 -15.4059,-0.23489 -9.8994,18.82758 -10.9228,28.63018 -7.9077,5.92963 -19.7384,-0.38478 -28.76,1.95795 z"
           style="-inkscape-font-specification:KiwiSoda;fill:#3daee9;fill-opacity:1"
           id="path1211" /></g><path
         id="rect514"
         style="fill:#f4bb4b;fill-opacity:1;stroke-width:0;stroke-linecap:square;stroke-linejoin:round;paint-order:stroke fill markers"
         d="m 25.016673,120.7875 c 0,0 90.626937,3.24126 129.644957,3.12747 39.01802,-0.11378 104.38958,-3.12747 104.38958,-3.12747 8.90661,2.94072 0.58243,10.93857 -5.32927,8.60049 0,0 -93.87563,3.23171 -102.77763,2.08498 -8.90202,-1.14674 -125.927637,-2.08498 -125.927637,-2.08498 -5.278752,0.07 -5.279642,-8.657 0,-8.60049 z"
         sodipodi:nodetypes="czcczcc" /></g></g></svg>
